<svg width="256" height="40" viewBox="0 0 256 40" fill="none" xmlns="http://www.w3.org/2000/svg">
<g clip-path="url(#clip0_5129_99)">
<path fill-rule="evenodd" clip-rule="evenodd" d="M15.331 21.371C15.6614 21.3435 15.9672 21.2343 16.252 21.161C16.5865 21.075 16.8548 21.0153 17.1324 20.8686C17.2295 20.9336 17.2683 20.9811 17.4256 20.9942C17.4424 21.1961 17.5085 21.3845 17.5595 21.5721C17.6042 21.7366 17.6774 21.9469 17.7189 22.1246C17.3871 22.2446 17.8792 22.3935 16.906 22.1833C16.6806 22.1347 16.5384 22.1 16.3412 22.0361L15.2891 21.6222C15.3121 21.5236 15.3282 21.4985 15.331 21.371ZM18.2586 6.71777H18.4189C18.6106 6.75485 18.7303 6.91657 18.8308 6.94633C19.0863 7.02201 20.3742 6.99369 21.8376 7.62553C22.4751 7.90073 22.1526 7.63885 22.5365 7.63885C22.9706 7.63885 23.123 7.89465 23.123 8.30869C23.2072 8.36505 23.2429 8.40345 23.3406 8.46797C23.7019 8.70649 24.2748 9.27933 24.5397 9.61413L24.858 10.0078C25.491 10.8566 25.0244 10.449 25.5257 10.6803C25.9402 10.8715 25.6784 11.33 25.6784 11.3649C25.6784 11.3678 26.4744 13.2345 26.4744 14.5887C26.6883 14.7018 26.817 14.8733 26.8514 15.0541V15.2505C26.8232 15.3969 26.7312 15.5379 26.5702 15.6473C26.3621 15.7888 26.411 16.4145 26.239 17.0329C26.071 17.6371 26.1294 17.3211 26.2797 17.6301C26.4566 17.9942 26.1733 18.4822 25.6784 18.4822C25.6375 18.6577 25.5487 18.7705 25.4703 18.9023C25.1302 19.4743 25.085 19.5179 24.6846 20.001C24.6131 20.0873 24.6202 20.1028 24.5378 20.1893L23.9872 20.7275C23.9779 20.7354 23.9511 20.7579 23.9418 20.7658C23.7939 20.8897 23.5341 21.1609 23.3743 21.2035C23.3743 21.5519 23.4008 21.8312 23.0823 22.0002C22.7828 22.1591 22.5448 22.0191 22.327 21.8734C22.3196 21.8799 22.3092 21.889 22.3044 21.8926C22.2995 21.8962 22.2879 21.9076 22.2818 21.9119C22.273 21.9179 22.2408 21.9377 22.2301 21.9439C21.9295 22.12 21.0152 22.4304 20.6346 22.5265C19.9577 22.6975 19.3475 22.7525 18.5148 22.7525C18.4895 22.8473 18.4398 22.9161 18.3672 22.9819C18.3092 23.0345 18.2178 23.0736 18.1151 23.0875H17.951C17.7951 23.066 17.6394 22.9802 17.55 22.7958C17.5204 22.7347 17.5175 22.7243 17.5094 22.6269C17.2477 22.6211 16.5106 22.4221 16.2467 22.3399L15.1216 21.9152C15.1183 21.9152 14.2418 22.3082 14.2418 21.4128C14.1185 21.3476 14.0161 21.2813 13.9062 21.204L13.0578 20.5446C12.7874 20.3017 12.3131 19.7971 12.1053 19.487C11.4316 19.6439 11.1199 19.0569 11.477 18.5241C11.2301 18.0579 11.0276 17.5206 10.8818 16.9418C10.6043 15.8411 10.6195 15.1956 10.681 14.0863C10.573 14.0345 10.2621 13.9293 10.2621 13.5839C10.2621 13.1407 10.4232 12.9559 10.8904 12.9559C11.1642 11.7816 11.6373 10.8569 12.3148 9.94149L12.9851 9.14601C12.5819 8.38461 13.2106 7.91281 13.8648 8.35057C14.0238 8.26649 14.1342 8.16761 14.2915 8.06525L15.42 7.47649C16.1569 7.20561 17.0091 6.92713 17.9702 6.92713C18.0022 6.80725 17.9991 6.82169 18.106 6.76969C18.1607 6.74305 18.2114 6.72645 18.2586 6.71777ZM22.2432 21.6222L20.6098 22.2086C19.9942 22.3613 19.3324 22.4176 18.5567 22.4176L21.9919 19.3614C22.1151 19.3901 22.1197 19.4033 22.2851 19.4033L22.4946 20.9105C22.4946 21.0107 22.1206 21.0959 22.2432 21.6222ZM18.431 22.1664C18.2763 22.0629 18.2857 22.0051 18.0121 21.999C17.9775 21.8503 17.8794 21.6421 17.8155 21.4838C17.7488 21.3188 17.6504 21.1365 17.6351 20.9523C17.8613 20.8996 17.9489 20.7897 17.9702 20.5337C18.4761 20.4916 19.2715 20.2436 19.7357 20.0791C19.9534 20.0019 21.1649 19.5035 21.3635 19.487L18.431 22.1664ZM12.4405 18.9009L13.6972 18.6497C13.8446 18.7483 13.906 18.8171 14.158 18.8171C14.2001 18.9975 14.2467 19.1275 14.2924 19.3109C14.3748 19.6417 14.6389 20.648 14.6608 20.9105C14.2613 21.1217 14.4361 21.1835 13.8053 20.7187L12.5964 19.5405C12.4745 19.3932 12.469 19.3529 12.3567 19.2777C12.44 19.1204 12.4405 19.1402 12.4405 18.9009ZM14.3256 18.6915L14.4178 18.6162C15.038 18.9343 16.9216 20.2905 17.0486 20.3243C16.9167 20.599 17.2609 20.5266 16.2474 20.8633L15.2054 21.1616C15.1464 20.9411 15.1052 21.0576 15.005 20.9433C14.9433 20.8729 14.5942 19.2923 14.3256 18.6915ZM21.7405 19.0265C21.1636 19.0393 19.6053 19.8379 18.992 20.0477C18.6397 20.1681 18.3411 20.238 17.9702 20.3243C18.0649 20.183 18.1893 20.0831 18.3159 19.958L20.1044 17.4332C20.2209 17.2644 20.1645 17.3591 20.3483 17.3001C20.4582 17.2649 20.4608 17.2139 20.5676 17.1425C20.95 17.3984 21.7566 18.455 21.9081 18.5659C21.8133 18.7074 21.7458 18.7908 21.7405 19.0265ZM23.2068 20.9942C22.6715 20.7111 22.9463 21.0751 22.7097 20.2768C22.614 19.9539 22.5846 19.5943 22.4527 19.3195C22.618 19.2089 22.698 19.128 22.704 18.859C23.2629 18.859 23.6484 18.7487 24.1116 18.6329L25.1086 18.3705C25.3008 18.3104 25.2422 18.3029 25.3852 18.3985L24.5972 19.6624C24.5376 19.7373 24.5022 19.7536 24.4385 19.8388C24.1996 20.1579 23.5771 20.7463 23.2068 20.9942ZM14.4513 18.1473C14.5482 18.096 14.5976 18.0821 14.692 18.011C15.1478 17.6675 15.299 17.5348 15.8337 17.2681C16.721 16.8256 16.0516 17.004 16.6297 17.0169L17.3837 20.0731C17.1397 20.0528 16.139 19.3415 15.9426 19.2107L14.9039 18.5323C14.7527 18.4375 14.6858 18.4014 14.4932 18.3566C14.4895 18.1921 14.5046 18.2584 14.4513 18.1473ZM13.7391 17.8961L13.7873 17.9777L13.7391 17.8961ZM25.1338 18.0217C24.7969 18.1832 23.612 18.432 23.1816 18.5408C23.0513 18.5737 22.978 18.5903 22.8459 18.6251C22.4768 18.7225 22.4982 18.6707 22.8379 18.0717L23.1244 17.5207C23.3969 17.0458 23.8806 16.1589 24.0027 15.6353L25.2595 17.5193C25.152 17.7222 25.1338 17.7109 25.1338 18.0217ZM16.7972 16.9331C16.8916 16.7923 16.9463 16.8211 16.9648 16.5982C17.1522 16.6881 17.5702 16.7569 17.8058 16.8044L19.6518 17.0951C20.0261 17.1401 19.9185 17.1104 19.5788 17.6197C19.1961 18.1933 19.0026 18.5814 18.5399 19.2189C18.4539 19.3375 18.3828 19.4151 18.298 19.5215C18.2082 19.6343 17.8796 20.0255 17.8446 20.1569L17.5941 20.0295C17.5922 19.4385 17.0702 17.5436 16.7972 16.9331ZM14.3256 17.9798C14.2338 17.9357 14.1608 17.9067 14.0324 17.8961V15.1748C14.4682 15.1748 14.2322 15.091 14.3675 15.091C14.5185 15.091 15.164 15.749 15.2986 15.877C15.3953 15.9691 15.4347 15.9713 15.531 16.0634C15.9897 16.5019 16.039 16.3885 16.127 16.7657C16.0475 16.8077 15.9561 16.8361 15.868 16.8836C14.8266 17.4454 15.2684 17.2403 14.5182 17.7955C14.399 17.8836 14.4061 17.8596 14.3256 17.9798ZM19.1013 13.3327C19.2 13.3556 19.225 13.3717 19.3527 13.3745C19.3527 13.6249 19.7231 14.9508 19.8149 15.7177C19.8356 15.8905 19.9242 16.396 19.981 16.5145C19.8895 16.6511 19.8593 16.6111 19.8135 16.8075C19.3895 16.7089 18.328 16.5868 17.61 16.4558C17.4023 16.4179 17.0239 16.3737 16.881 16.3051C16.9171 16.1503 17.5388 15.3613 17.6689 15.1667L18.6511 13.8875C18.7244 13.8067 18.7255 13.784 18.798 13.6993C18.8676 13.618 18.8813 13.5858 18.9448 13.5111C19.0163 13.427 19.0383 13.4268 19.1013 13.3327ZM22.327 18.4822C22.2006 18.4822 21.9673 18.1857 21.8766 18.0951L21.2306 17.4427C21.2226 17.4336 21.2007 17.4061 21.1924 17.3971C20.7924 16.9633 21.0213 17.2193 20.69 16.9363C20.567 16.8312 20.6262 16.9663 20.6094 16.7657L22.8297 15.8446C23.4231 15.5466 23.41 15.4818 23.7095 15.5516C23.649 15.6658 23.6169 15.7701 23.5561 15.9007C23.4957 16.0304 23.4446 16.1493 23.3912 16.2802C23.1326 16.9145 23.09 16.9131 22.8571 17.3792L22.327 18.4822ZM24.296 15.091C24.7073 15.2883 25.6358 15.3231 25.7748 15.4553C25.8532 15.5299 25.8694 15.6562 26.1392 15.719C26.1392 16.2771 25.8618 17.1196 25.846 17.3099L25.5108 17.3518L25.2348 16.8323C24.8087 16.1349 24.9846 16.4089 24.5722 15.8616C24.5238 15.7973 24.5217 15.8055 24.4752 15.7493C24.4183 15.6806 24.4356 15.6894 24.3874 15.6276C24.3205 15.5419 24.2554 15.4829 24.1703 15.426C24.2474 15.3109 24.2807 15.2743 24.296 15.091ZM10.9742 14.9236L11.0161 14.0444C11.1948 14.0921 11.1889 14.1921 11.3795 14.5186L13.4794 18.03C13.5571 18.1439 13.6094 18.1735 13.6134 18.3566L12.3986 18.6078C12.1132 18.4168 12.2356 18.3566 11.7702 18.3566C11.756 18.1865 11.6985 18.134 11.6297 17.9946C11.5898 17.9139 11.5874 17.9008 11.5549 17.8181C11.5239 17.7392 11.5016 17.7055 11.4633 17.6166C11.173 16.9431 10.9742 15.7204 10.9742 14.9236ZM25.6784 15.0492C25.1876 15.0492 24.7836 14.8817 24.254 14.8817C24.221 14.7579 24.237 14.8138 24.1703 14.7143C24.2428 14.5772 24.2611 14.4814 24.3248 14.3244L24.7436 13.1102C24.8531 12.8389 24.9516 12.5847 25.0442 12.322C25.1018 12.1584 25.2871 11.6621 25.3014 11.4905H25.3852C25.3956 11.6155 25.579 11.9945 25.6425 12.1544C25.9305 12.8803 26.1392 13.7617 26.1392 14.5887C25.816 14.6155 25.7851 14.827 25.6784 15.0492ZM13.7391 17.8961L11.4183 14.103C11.3619 14.0195 11.1572 13.798 11.3524 13.7581C11.396 13.7491 11.7327 13.8953 11.8064 13.9245C12.1661 14.0669 13.3448 14.6117 13.5716 14.6305C13.5716 14.9492 13.6267 15.0155 13.8648 15.1748C13.78 15.3513 13.7529 16.21 13.7406 16.516C13.7309 16.7588 13.6952 16.6598 13.6961 17.1855C13.6965 17.4333 13.7391 17.5961 13.7391 17.8961ZM11.3513 13.4164C11.3513 13.2859 11.5588 13.234 11.8371 13.0646L12.8283 12.3386C12.9325 12.235 12.957 12.235 13.058 12.1495C13.1783 12.0477 13.1566 11.9947 13.3202 11.9511C13.443 12.183 13.492 12.7987 13.5395 13.1135C13.601 13.5215 13.7428 13.8681 13.8229 14.2119L13.646 14.37C13.4927 14.2933 13.286 14.2225 13.0933 14.1456L11.9438 13.6616C11.7607 13.5979 11.3513 13.4907 11.3513 13.4164ZM19.604 13.3327L19.7623 13.1559L22.3551 14.7281C22.6495 14.8829 22.9611 15.0883 23.3324 15.1748C23.2985 15.3017 23.3361 15.2526 23.2156 15.3092L20.4419 16.5982C20.3254 16.497 20.3326 16.5531 20.2846 16.253C20.2572 16.0823 20.2453 15.9888 20.2078 15.8273L19.604 13.3327ZM16.1689 16.2214L15.5934 15.7081C15.3914 15.526 14.7306 14.9339 14.5351 14.8817C14.5379 14.7541 14.554 14.7291 14.577 14.6305C15.1363 14.6181 16.8899 13.8432 17.5768 13.6093L18.9338 13.0815C18.8764 13.1671 18.854 13.1828 18.7763 13.2591C18.6789 13.3547 18.6831 13.3687 18.6062 13.4659L17.4608 14.9587C17.3912 15.0517 17.359 15.0831 17.2923 15.1671C17.2373 15.2365 17.1937 15.3189 17.1395 15.3912C17.0823 15.4675 17.0375 15.5313 16.9748 15.6034C16.8751 15.718 16.9026 15.6942 16.8222 15.8277C16.784 15.8913 16.7061 16.0185 16.6736 16.0591C16.5385 16.2277 16.6947 16.0615 16.4469 16.1195C16.322 16.1487 16.2623 16.2214 16.1689 16.2214ZM20.1486 12.9977C20.3262 12.9938 20.7488 12.8627 20.9157 12.8014C21.1726 12.7072 21.4203 12.6517 21.6698 12.5503C22.0325 12.4028 22.3997 12.2925 22.746 12.1185C23.2042 11.8884 23.037 11.9437 23.2486 11.9929C23.3737 12.2534 23.5858 14.1941 23.6257 14.6724C23.4893 14.7088 23.4526 14.7454 23.4162 14.8817C22.558 14.4279 22.3059 14.4211 21.3635 13.7932L20.8126 13.4227C20.7707 13.3917 20.768 13.3831 20.7152 13.3526L20.1486 12.9977ZM14.4513 14.3793C14.4659 14.2037 14.4583 14.2831 14.5588 14.1518L15.9514 12.2361C16.3402 11.6546 16.3234 11.6959 16.642 11.0842C16.8188 10.7448 16.983 10.9504 17.3809 11.2841C17.3875 11.2896 17.3967 11.2979 17.4033 11.3036L19.0175 12.7465C18.457 12.877 18.0809 13.0288 17.5934 13.2491C17.5003 13.2911 17.4312 13.3083 17.3272 13.3598C16.8529 13.5949 16.1331 13.8359 15.6372 14.0154L15.0741 14.2063C14.9184 14.2648 14.6313 14.3753 14.4513 14.3793ZM24.0027 14.6305H23.9189C23.9189 13.7107 23.5 12.1507 23.5 11.9929C23.6969 11.9404 23.7082 11.8186 23.7932 11.658C24.1123 11.658 24.6942 11.4799 25.0081 11.4068C24.9946 11.5686 24.0352 14.2403 24.0027 14.6305ZM19.7716 12.8303C19.734 12.7454 19.8108 12.7093 19.9044 12.5862L20.8941 11.1052C21.162 10.6913 21.1588 11.0771 21.4054 10.6113L23.0392 11.4905C22.9607 11.654 23.077 11.6092 22.7324 11.7701L21.4952 12.292C21.0107 12.4837 20.6484 12.5619 20.1666 12.7226C20.0625 12.7573 19.917 12.8508 19.7895 12.838C19.7866 12.8377 19.7775 12.833 19.7716 12.8303ZM13.027 11.7836L11.777 12.7952C11.1051 13.3007 11.0182 13.3889 11.4508 12.0924C11.504 11.9331 11.5463 11.8217 11.5965 11.6937C11.6603 11.5311 11.7124 11.4499 11.776 11.287C11.8767 11.0286 12.0492 10.7598 12.1877 10.5262C12.3337 10.2799 12.4718 10.0786 12.6431 9.85093C12.743 9.71809 12.7918 9.65173 12.9116 9.53313C13.0182 9.42753 13.0804 9.31325 13.2364 9.27161C13.3298 9.46605 13.2784 9.88301 13.2783 10.1508C13.2782 10.5082 13.3202 10.6964 13.3202 11.03C13.1613 11.067 13.0721 11.1433 13.0039 11.301C12.9184 11.4987 12.9819 11.5904 13.027 11.7836ZM14.2837 14.17H14.1162L13.7642 12.5121C13.7187 12.3016 13.6601 12.1513 13.6134 11.9511C13.8229 11.8952 13.9433 11.7283 13.9486 11.4905C14.8262 11.4905 15.603 11.1126 16.2129 10.8997C16.275 10.878 16.3627 10.7997 16.3544 10.9302C16.3536 10.942 15.9899 11.5452 15.9511 11.6079L15.3479 12.554C15.2135 12.7381 14.3218 14.0276 14.2837 14.17ZM17.0067 10.6532L18.307 10.5678C18.5166 10.5711 18.513 10.6097 18.7226 10.613C19.3473 10.6227 19.9834 10.6113 20.6094 10.6113C20.6573 10.8168 20.6592 10.7781 20.8189 10.8625L20.3159 11.4902C20.1806 11.6726 19.5634 12.4177 19.5202 12.5791C19.2885 12.4679 19.3398 12.6369 19.1319 12.4229L18.1036 11.5247C18.0253 11.4635 18.0206 11.4768 17.938 11.3972C17.8853 11.3465 17.8679 11.3187 17.8103 11.2736L17.0067 10.6532ZM22.2014 8.68549C22.3859 8.68961 22.3972 8.72737 22.6203 8.72737L22.7027 9.64973C22.7196 10.1351 22.8486 10.6138 22.9554 11.0719C22.6684 10.9201 22.3859 10.7939 22.0832 10.6457C21.9335 10.5725 21.8034 10.5255 21.6392 10.4614L21.3863 10.3373C21.3802 10.3312 21.3732 10.3208 21.3676 10.3142C21.3009 10.2365 21.3584 10.2363 21.2378 10.1927L22.2014 8.68549ZM20.6094 10.3601C20.2545 10.3601 20.0577 10.3181 19.6878 10.3183L18.263 10.3188C17.9719 10.3201 17.802 10.239 17.3416 10.2763C16.7417 10.3251 16.9231 10.4031 17.3284 9.63493C17.3908 9.51657 17.4186 9.44533 17.481 9.32697C17.7043 8.90385 18.2111 8.06677 18.2216 7.59697C18.5383 7.59697 18.456 7.57045 18.6405 7.55513L18.8918 7.89009C18.9862 8.01813 19.0722 8.07085 19.1683 8.19993C19.2975 8.37361 19.7971 8.83749 20.023 9.14601L20.5499 9.79161C20.6498 9.92757 20.7748 9.98569 20.8189 10.1508C20.6825 10.1872 20.6459 10.2239 20.6094 10.3601ZM13.4878 9.31349C13.7777 9.28937 13.8656 9.12305 13.9905 8.93669C14.3655 9.02401 15.0572 9.42729 15.3843 9.67889C15.4826 9.75445 15.5563 9.79389 15.6548 9.86909C15.8367 10.008 15.9852 10.1116 16.1689 10.2345C16.1535 10.419 16.127 10.3367 16.127 10.6532C16.0056 10.6633 15.9674 10.6847 15.86 10.7213L15.0254 10.9757C14.6797 11.0987 14.2582 11.2413 13.9067 11.3231C13.864 11.1631 13.7735 11.0727 13.6134 11.03L13.4878 9.31349ZM24.9662 10.7788C24.8774 11.1598 24.8736 11.1243 24.5109 11.2449C24.3096 11.3117 23.9834 11.4068 23.7095 11.4068C23.6197 11.3795 23.7455 11.3355 23.3324 11.2393L23.0378 9.69165C22.8778 8.35477 22.518 8.29593 23.7026 9.23661C23.7939 9.30917 23.7342 9.23649 23.8178 9.33085L24.5777 10.2042C24.7248 10.3982 24.8536 10.566 24.9662 10.7788ZM16.4202 10.0671C15.5934 9.51377 15.1542 8.99217 14.1474 8.69609C13.9555 8.63965 14.0977 8.74805 13.9905 8.60177L14.5938 8.24181C14.6826 8.18785 14.7227 8.17837 14.8114 8.12437C15.1147 7.93997 15.3495 7.84869 15.695 7.70945C16.2232 7.49657 17.1708 7.26205 17.8864 7.26205C18.0402 7.55253 18.0843 7.45441 17.7054 8.25333L17.3587 8.95353C17.2877 9.06981 17.2375 9.16873 17.1757 9.27301L16.771 9.96041C16.6605 10.1581 16.8333 9.97093 16.4202 10.0671ZM18.8918 7.30393C19.545 7.30393 20.653 7.56693 21.2852 7.80085C21.4124 7.84793 21.5132 7.88337 21.621 7.92581C21.7695 7.98425 21.8266 8.04377 21.9919 8.05749C21.9919 8.31617 22.0294 8.39329 22.1176 8.55989C21.8416 8.74457 21.1301 9.78325 21.0284 9.85773C20.3908 8.90625 19.8286 8.56469 19.2656 7.89337L19.227 7.84817C18.9714 7.54389 18.5876 7.30393 18.8918 7.30393Z" fill="white"/>
<path fill-rule="evenodd" clip-rule="evenodd" d="M18.6831 26.3223C17.6228 26.3223 15.0536 25.7176 14.32 25.3982C12.7785 24.727 12.3447 24.3247 11.0876 23.3439C7.22028 20.3262 6.43952 13.7541 8.61772 9.73508C12.006 3.48342 20.799 1.29147 27.0105 7.74176C29.8828 10.7245 30.5404 16.014 28.6394 19.797C26.7691 23.5191 23.0874 26.3223 18.6831 26.3223ZM3.42804 16.1253C3.42804 25.1282 -3.38414 22.2761 2.19747 26.0114L1.25172 27.87C2.72114 30.6204 0.258423 28.5596 2.50852 31.9177L2.19747 33.472C2.19747 36.7156 6.54916 35.93 9.33604 35.6193C13.3116 35.1761 14.2933 35.8427 14.6395 40H30.503C29.8884 37.3632 27.0888 32.3286 29.5661 26.9402C32.3987 20.7789 35.8827 14.028 31.5576 7.03136C26.4775 -1.38972 14.3291 -2.25445 7.402 4.47896C5.0502 7.06268 3.26776 10.8642 3.25635 14.1997C3.25016 14.6309 3.42745 15.9542 3.42804 16.1253Z" fill="white"/>
<path d="M56.6632 37.975C54.5236 37.975 52.4484 37.7412 50.438 37.2737C48.4532 36.7849 46.8548 36.158 45.6432 35.393L47.77 31.504C48.93 32.2053 50.3092 32.7684 51.9072 33.1935C53.5056 33.6185 55.1036 33.831 56.702 33.831C58.4804 33.831 59.7952 33.6185 60.6456 33.1935C61.4964 32.7472 61.9216 32.1628 61.9216 31.4402C61.9216 30.909 61.664 30.4733 61.1484 30.1333C60.6588 29.772 60.014 29.4852 59.2152 29.2726C58.4416 29.0601 57.3848 28.8264 56.0444 28.5714C53.9824 28.1676 52.294 27.7638 50.9792 27.36C49.6648 26.9563 48.5304 26.3081 47.5768 25.4156C46.6488 24.523 46.1848 23.333 46.1848 21.8454C46.1848 20.549 46.61 19.3802 47.4608 18.3389C48.3112 17.2764 49.5872 16.437 51.2884 15.8207C53.0156 15.2044 55.1164 14.8962 57.5912 14.8962C59.318 14.8962 61.0068 15.0662 62.6564 15.4063C64.306 15.7463 65.7496 16.2351 66.9868 16.8726L65.0536 20.7934C62.5532 19.6246 60.0528 19.0402 57.5524 19.0402C55.7996 19.0402 54.498 19.274 53.6472 19.7415C52.8224 20.209 52.41 20.8253 52.41 21.5904C52.41 22.3554 52.8868 22.9292 53.8404 23.3117C54.82 23.673 56.3024 24.0342 58.2872 24.3955C60.3492 24.7993 62.0376 25.203 63.3524 25.6068C64.6668 26.0106 65.7884 26.6481 66.7164 27.5194C67.67 28.3907 68.1468 29.5702 68.1468 31.0577C68.1468 32.3328 67.7088 33.5016 66.8324 34.5642C65.9816 35.6055 64.6928 36.4343 62.9656 37.0506C61.2388 37.6668 59.1376 37.975 56.6632 37.975Z" fill="white"/>
<path d="M84.1428 15.2788C86.54 15.2788 88.6152 15.6082 90.368 16.267C92.1468 16.9258 93.5128 17.8608 94.4664 19.0721C95.4205 20.2835 95.8972 21.7179 95.8972 23.3755C95.8972 25.0119 95.4205 26.4463 94.4664 27.6788C93.5128 28.8902 92.1468 29.8252 90.368 30.484C88.6152 31.1215 86.54 31.4403 84.1428 31.4403H78.6909V37.5925H72.4272V15.2788H84.1428ZM83.7948 27.2326C85.6764 27.2326 87.1072 26.9032 88.0868 26.2444C89.0664 25.5644 89.556 24.6081 89.556 23.3755C89.556 22.1217 89.0664 21.1654 88.0868 20.5066C87.1072 19.8266 85.6764 19.4865 83.7948 19.4865H78.6909V27.2326H83.7948Z" fill="white"/>
<path d="M116.835 32.811H104.268L101.871 37.5925H95.4524L107.516 15.2788H113.703L125.805 37.5925H119.232L116.835 32.811ZM114.863 28.8902L110.571 20.3472L106.279 28.8902H114.863Z" fill="white"/>
<path d="M141.189 37.975C138.431 37.975 135.93 37.4862 133.688 36.5086C131.471 35.5098 129.718 34.1392 128.429 32.3966C127.166 30.6327 126.534 28.6457 126.534 26.4356C126.534 24.2255 127.166 22.2491 128.429 20.5066C129.718 18.7427 131.471 17.372 133.688 16.3944C135.93 15.3956 138.444 14.8962 141.228 14.8962C143.573 14.8962 145.687 15.2363 147.569 15.9163C149.476 16.5963 151.074 17.5739 152.363 18.849L148.342 21.9091C146.512 20.1665 144.244 19.2952 141.537 19.2952C139.861 19.2952 138.366 19.6034 137.052 20.2196C135.737 20.8147 134.706 21.6541 133.958 22.7379C133.236 23.8217 132.876 25.0543 132.876 26.4356C132.876 27.8169 133.236 29.0495 133.958 30.1333C134.706 31.2171 135.737 32.0672 137.052 32.6834C138.366 33.2785 139.861 33.576 141.537 33.576C144.244 33.576 146.512 32.6941 148.342 30.9302L152.363 33.9904C151.074 35.2867 149.476 36.2749 147.569 36.9549C145.661 37.635 143.535 37.975 141.189 37.975Z" fill="white"/>
<path d="M177.55 33.4485V37.5925H156.593V15.2788H177.048V19.4228H162.818V24.2681H175.385V28.2845H162.818V33.4485H177.55Z" fill="white"/>
<path d="M184.042 15.2788H186.014V36.1262H201.596V37.5925H184.042V15.2788Z" fill="white"/>
<path d="M223.44 31.3128H207.742L204.301 37.5925H202.174L214.624 15.2788H216.596L229.047 37.5925H226.92L223.44 31.3128ZM222.706 29.9421L215.591 17.0639L208.515 29.9421H222.706Z" fill="white"/>
<path d="M250.046 26.085C251.979 26.3825 253.448 27.0094 254.453 27.9657C255.484 28.922 256 30.1652 256 31.6953C256 33.5866 255.162 35.0424 253.487 36.0624C251.811 37.0825 249.324 37.5925 246.024 37.5925H233.96V15.2788H245.251C248.19 15.2788 250.471 15.7782 252.095 16.777C253.744 17.7546 254.569 19.1571 254.569 20.9847C254.569 22.2598 254.157 23.333 253.332 24.2043C252.533 25.0756 251.438 25.7025 250.046 26.085ZM235.932 16.6814V25.575H245.174C247.545 25.575 249.362 25.2031 250.626 24.4593C251.914 23.6943 252.559 22.5786 252.559 21.1122C252.559 19.6672 251.914 18.5727 250.626 17.829C249.362 17.0639 247.545 16.6814 245.174 16.6814H235.932ZM246.024 36.1899C248.654 36.1899 250.638 35.8181 251.979 35.0742C253.345 34.3092 254.028 33.1404 254.028 31.5678C254.028 29.9952 253.345 28.837 251.979 28.0932C250.638 27.3495 248.654 26.9776 246.024 26.9776H235.932V36.1899H246.024Z" fill="white"/>
</g>
<defs>
<clipPath id="clip0_5129_99">
<rect width="256" height="40" fill="white"/>
</clipPath>
</defs>
</svg>
